<svg viewBox="0 0 800 600" height="600" width="800" xmlns="http://www.w3.org/2000/svg" version="1.1"><g transform-origin="center" transform="scale(1, 1) rotate(0)"><rect x="0" y="0" width="800" height="600" fill="#002438"></rect><linearGradient id="linear-gradient-r0"><stop offset="0%" stop-color="#011b3fff" stop-opacity="100%"></stop><stop offset="100%" stop-color="#02417eff" stop-opacity="100%"></stop></linearGradient><filter id="shadow-r0" x="0" width="100%" y="-20%" height="150%"><feDropShadow dx="0" dy="0" stdDeviation="10" flood-color="#00000061"></feDropShadow></filter><path d="M0 0 C 0,291.08258499065414 -40,291.33501988090575 0,291.08258499065414 C 40,290.83015010040253 119.99999999999999,286.4114759895019 200,289.8204105393961 C 280,293.2293450892903 320,308.67539145145565 400,308.12725774012506 C 480,307.57912402879447 520,294.24175452953205 600,287.07974198274314 C 680,279.91772943595424 760,275.2697044014931 800,272.31719500618055 L800 600 L0 600Z" fill="none" stroke-linecap="round" filter="url(#shadow-r0)" stroke-width="1" style="transition: 0.4s cubic-bezier(0.16, 1, 0.3, 1); fill: url(&quot;#linear-gradient-r0&quot;);"></path><path d="M0 0 C 0,397.16130333176505 -40.00000000000001,392.1438711360097 0,397.16130333176505 C 40.00000000000001,402.1787355275204 119.99999999999999,422.99961050755036 200,422.24846431054175 C 280,421.49731811353314 320,403.22018213306245 400,393.40557234672207 C 480,383.59096256038174 520,389.9011459370765 600,373.17541537884 C 680,356.4496848206036 760,322.4566187201999 800,309.7769195555399 L800 600 L0 600Z" fill="none" stroke-linecap="round" filter="url(#shadow-r0)" stroke-width="1" style="transition: 0.4s cubic-bezier(0.16, 1, 0.3, 1); fill: url(&quot;#linear-gradient-r0&quot;);"></path><path d="M0 0 C 0,536.3696708809584 -40.00000000000001,543.6973245150099 0,536.3696708809584 C 40.00000000000001,529.042017246907 120,512.1986097365929 200,499.73140271070105 C 280,487.26419568480924 320,495.27983402817824 400,474.0336357514995 C 480,452.78743747482076 520,405.076556489182 600,393.5004113273074 C 680,381.9242661654328 760,411.6224102191627 800,416.15290994212654 L800 600 L0 600Z" fill="none" stroke-linecap="round" filter="url(#shadow-r0)" stroke-width="1" style="transition: 0.4s cubic-bezier(0.16, 1, 0.3, 1); fill: url(&quot;#linear-gradient-r0&quot;);"></path></g></svg>
