<svg viewBox="0 0 800 600" height="600" width="800" xmlns="http://www.w3.org/2000/svg" version="1.1"><g transform-origin="center" transform="scale(1, 1) rotate(0)"><rect x="0" y="0" width="800" height="600" fill="#202020ff"></rect><linearGradient id="linear-gradient-r7"><stop offset="0%" stop-color="#474747ff" stop-opacity="100%"></stop><stop offset="100%" stop-color="#303030ff" stop-opacity="100%"></stop></linearGradient><filter id="shadow-r7" x="0" width="100%" y="-20%" height="150%"><feDropShadow dx="2" dy="0" stdDeviation="13" flood-color="#00000061"></feDropShadow></filter><path d="M0 0 C 0,311.7125472170301 -14.666666666666668,311.7896801001625 0,311.7125472170301 C 14.666666666666668,311.63541433389764 104,309.96972029830795 133.33333333333334,311.0113391885534 C 162.66666666666669,312.05295807879884 237.33333333333334,321.3492951563094 266.6666666666667,321.18180985562503 C 296,321.0143245549407 370.6666666666667,311.67713826859836 400,309.4887455459684 C 429.3333333333333,307.30035282333847 504,305.0167164267041 533.3333333333334,301.2873305589892 C 562.6666666666667,297.5579446912743 637.3333333333334,277.61722058500163 666.6666666666667,275.5852376576513 C 696.0000000000001,273.553254730301 785.3333333333334,282.0195112003712 800,282.81475849216804 L800 600 L0 600Z" fill="none" stroke-linecap="round" filter="url(#shadow-r7)" stroke-width="1" style="transition: 0.4s cubic-bezier(0.16, 1, 0.3, 1); fill: url(&quot;#linear-gradient-r7&quot;);"></path></g></svg>
