<svg viewBox="0 0 800 600" height="600" width="800" xmlns="http://www.w3.org/2000/svg" version="1.1"><rect x="0" y="0" width="800" height="600" fill="#e7e5c7ff"></rect><g transform-origin="400 300" transform="scale(1, 1)"><linearGradient id="linear-gradient-r6"><stop offset="0%" stop-color="#ceffefff" stop-opacity="100%"></stop><stop offset="100%" stop-color="#f2ddc7ff" stop-opacity="100%"></stop></linearGradient><filter id="shadow-r6" x="-20%" width="150%" y="-20%" height="150%"><feDropShadow dx="0" dy="0" stdDeviation="10" flood-color="#95747461"></feDropShadow></filter><path d="M0 0 C 0,459.38582507669923 -39.19777692258358,482.6652131694555 0,459.38582507669923 C 39.197776922583586,436.10643698394296 127.64242064774037,395.9195856630802 195.9888846129179,342.9888846129179 C 264.3353485780954,290.0581835627556 283.7385360962152,263.3300967484713 341.73231982588766,194.73231982588769 C 399.7261035555601,126.13454290330411 457.1127065742016,38.946463965177536 485.95780326128005,0 L0 0Z" fill="none" stroke-linecap="round" filter="url(#shadow-r6)" stroke-width="1" style="transition: 0.4s cubic-bezier(0.16, 1, 0.3, 1); fill: url(&quot;#linear-gradient-r6&quot;);"></path><path d="M0 0 C 0,364.30386572610587 -30.065556830093268,384.29908204123376 0,364.30386572610587 C 30.065556830093268,344.308649410978 94.63076828666033,304.29154143188146 150.32778415046633,264.3277841504663 C 206.02480001427233,224.36402686905114 236.3089693891257,217.3506361491233 278.48507931903004,164.48507931903004 C 320.66118924893436,111.61952248893678 344.6636829037965,32.89701586380601 361.20833379998805,0 L0 0Z" fill="none" stroke-linecap="round" filter="url(#shadow-r6)" stroke-width="1" style="transition: 0.4s cubic-bezier(0.16, 1, 0.3, 1); fill: url(&quot;#linear-gradient-r6&quot;);"></path></g><g transform-origin="400 300" transform="scale(-1, -1)"><linearGradient id="linear-gradient-r6"><stop offset="0%" stop-color="#ceffefff" stop-opacity="100%"></stop><stop offset="100%" stop-color="#f2ddc7ff" stop-opacity="100%"></stop></linearGradient><filter id="shadow-r6" x="-20%" width="150%" y="-20%" height="150%"><feDropShadow dx="0" dy="0" stdDeviation="10" flood-color="#95747461"></feDropShadow></filter><path d="M0 0 C 0,485.95780326128005 -38.40076640367508,515.348597509861 0,485.95780326128005 C 38.40076640367508,456.56700901269915 127.14245274603368,400.73401339828973 192.0038320183754,339.0038320183754 C 256.8652112907171,277.27365063846116 281.8579135888815,245.10766276538374 324.30689636170865,177.30689636170865 C 366.7558791345358,109.50612995803357 388.2603759783506,35.46137927234173 404.2487458825111,0 L0 0Z" fill="none" stroke-linecap="round" filter="url(#shadow-r6)" stroke-width="1" style="transition: 0.4s cubic-bezier(0.16, 1, 0.3, 1); fill: url(&quot;#linear-gradient-r6&quot;);"></path><path d="M0 0 C 0,324.0781438210979 -22.806306539922954,343.2874660453945 0,324.0781438210979 C 22.80630653992295,304.8688215968013 64.20380389709025,265.81943266130986 114.03153269961476,228.03153269961476 C 163.85926150213928,190.24363273791968 202.18365883536637,180.7449505525455 249.13864401262254,135.13864401262254 C 296.0936291898787,89.53233747269958 328.872895671241,27.027728802524507 348.8064585858956,0 L0 0Z" fill="none" stroke-linecap="round" filter="url(#shadow-r6)" stroke-width="1" style="transition: 0.4s cubic-bezier(0.16, 1, 0.3, 1); fill: url(&quot;#linear-gradient-r6&quot;);"></path></g></svg>
